{
    "asset" : {
        "generator" : "Khronos glTF Blender I/O v1.6.16",
        "version" : "2.0"
    },
    "extensionsUsed" : [
        "KHR_materials_transmission",
        "KHR_materials_volume"
    ],
    "scene" : 0,
    "scenes" : [
        {
            "name" : "Scene",
            "nodes" : [
                0
            ]
        }
    ],
    "nodes" : [
        {
            "mesh" : 0,
            "name" : "Crystal",
            "scale" : [
                2.1970198154449463,
                6.681694507598877,
                2.1970198154449463
            ]
        }
    ],
    "materials" : [
        {
            "doubleSided" : true,
            "extensions" : {
                "KHR_materials_transmission" : {
                    "transmissionFactor" : 1
                },
                "KHR_materials_volume": {
                    "thicknessFactor": 2.0,
                    "attenuationDistance":  0.5
                }
            },
            "name" : "glass",
            "pbrMetallicRoughness" : {
                "baseColorFactor" : [
                    0.14731650054454803,
                    0,
                    0.011578529141843319,
                    1
                ],
                "metallicFactor" : 0,
                "roughnessFactor" : 0.19767442345619202
            }
        }
    ],
    "meshes" : [
        {
            "name" : "Cone",
            "primitives" : [
                {
                    "attributes" : {
                        "POSITION" : 0,
                        "NORMAL" : 1
                    },
                    "indices" : 2,
                    "material" : 0
                }
            ]
        }
    ],
    "accessors" : [
        {
            "bufferView" : 0,
            "componentType" : 5126,
            "count" : 60019,
            "max" : [
                0.6940587759017944,
                0.5750284790992737,
                0.6830984354019165
            ],
            "min" : [
                -0.6763074398040771,
                -0.635431170463562,
                -0.6863334774971008
            ],
            "type" : "VEC3"
        },
        {
            "bufferView" : 1,
            "componentType" : 5126,
            "count" : 60019,
            "type" : "VEC3"
        },
        {
            "bufferView" : 2,
            "componentType" : 5123,
            "count" : 360102,
            "type" : "SCALAR"
        }
    ],
    "bufferViews" : [
        {
            "buffer" : 0,
            "byteLength" : 720228,
            "byteOffset" : 0
        },
        {
            "buffer" : 0,
            "byteLength" : 720228,
            "byteOffset" : 720228
        },
        {
            "buffer" : 0,
            "byteLength" : 720204,
            "byteOffset" : 1440456
        }
    ],
    "buffers" : [
        {
            "byteLength" : 2160660,
            "uri" : "data:application/octet-stream;base64,"
        }
    ]
}
